<svg version="1.2" xmlns="http://www.w3.org/2000/svg" viewBox="0 0 136 23" width="136" height="23">
	<title>stars</title>
	<style>
		.s0 { fill: #ffdd3f } 
		.s1 { fill: #4b526b } 
	</style>
	<g id="stars">
		<path id="favourite" class="s0" d="m5.9 19.5c0.2-2 0.5-5.3 0.5-5.3 0 0-2.3-2.5-3.6-4-1.3-1.4 1.3-1.5 0.5-1.4 2-0.3 5.4-0.6 5.4-0.6 0 0 1.5-3.3 2.5-5.1 1.1-1.8 2.1 0.9 1.6 0 1.1 1.8 2.5 5.1 2.5 5.1 0 0 3.5 0.2 5.5 0.6 2 0.4-0.1 2.1 0.4 1.5-1.3 1.5-3.5 3.8-3.5 3.8 0 0 0.3 3.3 0.5 5.4 0.2 2.1-1.9 0.5-1.3 0.8-1.9-0.9-4.8-2.2-4.8-2.2 0 0-3 1.4-4.8 2.2-2.1 1-1.4-1.3-1.4-0.8z"/>
		<path id="favourite copy" class="s0" d="m33.9 19.5c0.2-2 0.5-5.3 0.5-5.3 0 0-2.3-2.5-3.6-4-1.3-1.4 1.3-1.5 0.5-1.4 2-0.3 5.4-0.6 5.4-0.6 0 0 1.5-3.3 2.5-5.1 1.1-1.8 2.1 0.9 1.6 0 1.1 1.8 2.5 5.1 2.5 5.1 0 0 3.5 0.2 5.5 0.6 2 0.4-0.1 2.1 0.4 1.5-1.3 1.5-3.5 3.8-3.5 3.8 0 0 0.3 3.3 0.5 5.4 0.2 2.1-1.9 0.5-1.3 0.8-1.9-0.9-4.8-2.2-4.8-2.2 0 0-3 1.4-4.8 2.2-2.1 1-1.4-1.3-1.4-0.8z"/>
		<path id="favourite copy 2" class="s0" d="m61.9 19.5c0.2-2 0.5-5.3 0.5-5.3 0 0-2.3-2.5-3.6-4-1.3-1.4 1.3-1.5 0.5-1.4 2-0.3 5.4-0.6 5.4-0.6 0 0 1.5-3.3 2.5-5.1 1.1-1.8 2.1 0.9 1.6 0 1.1 1.8 2.5 5.1 2.5 5.1 0 0 3.5 0.2 5.5 0.6 2 0.4-0.1 2.1 0.4 1.5-1.3 1.5-3.5 3.8-3.5 3.8 0 0 0.3 3.3 0.5 5.4 0.2 2.1-1.9 0.5-1.3 0.8-1.9-0.9-4.8-2.2-4.8-2.2 0 0-3 1.4-4.8 2.2-2.1 1-1.4-1.3-1.4-0.8z"/>
		<path id="favourite copy 3" class="s0" d="m89.9 19.5c0.2-2 0.5-5.3 0.5-5.3 0 0-2.3-2.5-3.6-4-1.3-1.4 1.3-1.5 0.5-1.4 2-0.3 5.4-0.6 5.4-0.6 0 0 1.5-3.3 2.5-5.1 1.1-1.8 2.1 0.9 1.6 0 1.1 1.8 2.5 5.1 2.5 5.1 0 0 3.5 0.2 5.5 0.6 2 0.4-0.1 2.1 0.4 1.5-1.3 1.5-3.5 3.8-3.5 3.8 0 0 0.3 3.3 0.5 5.4 0.2 2.1-1.9 0.5-1.3 0.8-1.9-0.9-4.8-2.2-4.8-2.2 0 0-3 1.4-4.8 2.2-2.1 1-1.4-1.3-1.4-0.8z"/>
		<path id="favourite copy 4" class="s1" d="m117.9 19.5c0.2-2 0.5-5.3 0.5-5.3 0 0-2.3-2.5-3.6-4-1.3-1.4 1.3-1.5 0.5-1.4 2-0.3 5.4-0.6 5.4-0.6 0 0 1.5-3.3 2.5-5.1 1.1-1.8 2.1 0.9 1.6 0 1.1 1.8 2.5 5.1 2.5 5.1 0 0 3.5 0.2 5.5 0.6 2 0.4-0.1 2.1 0.4 1.5-1.3 1.5-3.5 3.8-3.5 3.8 0 0 0.3 3.3 0.5 5.4 0.2 2.1-1.9 0.5-1.3 0.8-1.9-0.9-4.8-2.2-4.8-2.2 0 0-3 1.4-4.8 2.2-2.1 1-1.4-1.3-1.4-0.8z"/>
	</g>
</svg>